<svg version="1.1" id="contact-icon" xmlns="http://www.w3.org/2000/svg" xmlns:xlink="http://www.w3.org/1999/xlink" x="0px"
	 y="0px" viewBox="0 0 64 64">
<g id="colibri-icon">
	<path id="body" style="fill:none;stroke:#44CE9F;stroke-width:2;stroke-linejoin:round;stroke-miterlimit:10;" d="M5.8,63
		c4.7,0,12.1-5.4,13.6-10.7c10.9,1.6,21.4-9,24.1-20.8c2.8-11.8,2.9-14.3,8-19.5C56.5,6.8,63,2,63,2c-7.4,4.9-13.5,11.2-18.3,12.4
		c-4.8,1.2-12.2-0.1-13.7,11.1c-1.3,9.7-3.2,8.9-11.7,17C7.1,54.4,5.8,63,5.8,63z"/>
	<path id="wing" style="fill:none;stroke:#44CE9F;stroke-width:2;stroke-linejoin:round;stroke-miterlimit:10;" d="M10.6,19.8
		c-5-5.2-8.8-11.2-9.6-17C5.4,4,9.6,6.2,13.3,9.1C13.1,8,13,6.8,13,5.7c6.6,3.2,12,10.5,14.2,18.5c-0.7,5.2-1.6,6.8-4.1,9.1
		c-4.9,0.5-10.6-0.3-14-3c1.7-0.9,3.6-1.4,5.6-1.6c-5-2.3-9.5-5.6-11.8-9.6C5.4,18.9,8,19.1,10.6,19.8z"/>
	<circle id="eye" style="fill:#44CE9F;" cx="39" cy="21" r="2"/>
</g>
</svg>
