<svg version="1.1" id="condor-icon" xmlns="http://www.w3.org/2000/svg" xmlns:xlink="http://www.w3.org/1999/xlink" x="0px"
	 y="0px" viewBox="0 0 64 64" >
<g id="condor">
	<path id="body" style="fill:#f0aa23;" d="M55.1,21.4c-0.1,0.3-0.2,0.7-0.2,1c0.1,0.7,0.5,1.3,1.1,1.6c0.1,0,0.1,0.1,0.2,0.1
		c-0.3,0.1-0.6,0.3-1,0.4c-0.9,0.3-1.4,1.2-1.3,2.1c0.1,0.9,0.9,1.7,1.8,1.7c0,0,0.4,0,0.9,0c-2.2,2.9-6.2,6.7-12.1,7.4
		c-11.3,1.3-13.3,2.7-13.3,5.1c0,1.1,0.7,1.7,1.9,2.5c-0.8-0.1-1.5-0.2-2.3-0.2c0.2-0.2,0.3-0.5,0.4-0.8c0.2-0.9-0.3-1.9-1.1-2.2
		c-0.8-0.4-1.8-1-2.4-1.7c0.1-0.1,0.2-0.2,0.2-0.3c0.6-0.7,0.9-1.7,1-2.8C33,34.3,43.9,30.7,55.1,21.4 M8.5,27c2,1.6,3.9,3,5.2,3.8
		c1,0.6,2,1.1,3,1.6c-0.3,0.2-0.5,0.5-0.7,0.8c-0.3,0.4-0.5,1.1-0.3,1.9c-3.2-1-6.5-2.6-8.6-5.2c0.6-0.3,1.1-0.7,1.3-1.2
		C8.6,28.2,8.7,27.6,8.5,27C8.5,27,8.5,27,8.5,27 M63.7,10L63.7,10L63.7,10z M63.7,10C47.1,29.9,26.8,33.8,26.8,33.8
		c0.7,3.7-1.6,3.7-1.6,3.7c0.1,2.6,4.1,4.4,4.1,4.4s-1.4,0-3.4-2c-3.3-3.1-5.5-4.3-6.6-4.8c-0.2-0.1-0.4-0.1-0.5-0.1
		c-0.6,0-0.9,0.6-0.9,0.6c-1-1.8,0.4-2,1-2c0.2,0,0.3,0,0.3,0c0-0.2,0.2-0.3,0.6-0.3c0.4,0,0.8,0.1,1.4,0.2c0.4,0.1,0.8,0.1,1.1,0.1
		c0.7,0,1.2-0.1,1.2-0.1s-4.8-2.3-8.9-4.6C10.6,26.7,0.3,17.4,0.3,17.4c1,3.7,4.5,7.3,4.5,7.3c0,0-0.1,0-0.1,0
		c-1.4,0-3.8-1.8-3.8-1.8c2,3.2,5.7,4.8,5.7,4.8c-0.4,0.7-2.3,0.7-2.7,0.7c0,0-0.1,0-0.1,0c2.8,6.9,11.2,8.7,16.3,10
		c1.7,0.4,6.5,2.2,5.6,3.1c-2.1,2-2.6,4.3-2.6,4.3c1.8-0.6,3.7-0.8,5.6-0.8c5.6,0,11.1,1.8,11.1,1.8c-0.3-2.6-6.6-5.4-6.6-6
		c0-0.5,0.7-1.8,11.6-3.1C55.7,36.6,60.7,26,60.7,26c-1.1,0.4-2.6,0.5-3.5,0.5c-0.7,0-1.2,0-1.2,0c5.7-2,7.7-7.3,7.7-7.3
		c-3.8,2.8-5.7,3.2-6.4,3.2c-0.3,0-0.4-0.1-0.4-0.1C62.9,17.6,63.7,10,63.7,10L63.7,10z M63.7,19.1L63.7,19.1L63.7,19.1z M60.7,26
		L60.7,26L60.7,26z"/>
</g>
</svg>
