<svg version="1.1" id="flamenco-icon" xmlns="http://www.w3.org/2000/svg" xmlns:xlink="http://www.w3.org/1999/xlink" x="0px"
	 y="0px" viewBox="0 0 64 64">
<g id="bird">
		<line id="leg-right" style="fill:none;stroke:#D57BEF;stroke-width:2;stroke-linecap:round;stroke-linejoin:round;stroke-miterlimit:10;" x1="36" y1="53.9" x2="48" y2="62.9"/>

		<line id="leg-left" style="fill:none;stroke:#D57BEF;stroke-width:2;stroke-linecap:round;stroke-linejoin:round;stroke-miterlimit:10;" x1="35" y1="54" x2="35" y2="63"/>
	<g id="bill">
		<path id="XMLID_13_" style="fill:#D57BEF;" d="M54.4,8.6C54.5,8.6,54.5,8.7,54.4,8.6c2,1.5,4.6,3.6,5,4.8c0.7,1.9,0.5,2.7-0.2,3.6
			l-0.2,0.3c-0.5,0.8-1,1.5-1.4,2c0.3-4.3,0.1-7.4-3.9-9.7C54.1,9.3,54.3,9,54.4,8.6 M53.3,5.2c-0.1,2.2-1.3,4.1-3.1,5l2.6,1.1
			c3.4,1.8,3.3,4,2.8,9.5c0.4,0.6,1.1,0.9,1.7,0.9c0.4,0,0.9-0.2,1.3-0.5c0.7-0.6,1.4-1.7,2.4-3.2c1.1-1.6,1.2-3.1,0.4-5.4
			C60.6,10.4,56.2,7.6,53.3,5.2L53.3,5.2z"/>
	</g>
	<g id="body">
		<path id="XMLID_22_" style="fill:#D57BEF;" d="M39.8,4.7c0,0.1,0,0.2,0,0.2c0,0.9,0.1,1.7,0.4,2.5c-2.6,1.2-4.4,3.9-4.4,7
			c0,3.5,2.3,6.5,5.6,7.4c2.4,0.9,4.1,1.6,5,1.9c1.3,0.5,2.2,0.8,3,1.1c0.9,0.3,1.7,0.6,3.2,1.2c5.9,2.7,9.5,10.6,7.4,16.3
			c-1.8,4.8-5.3,7.8-10.4,8.8c-2.1,0.4-4.4,0.5-6.8,0.6c-0.5,0-0.9,0-1.4,0l-6.5,0C24.4,50.4,19.6,49,19.6,49
			c-0.2-0.1-0.4-0.1-0.6-0.1c-0.1,0-0.1,0-0.2,0l-1.7,0.1c-0.9,0.1-1.7,0.1-2.5,0.2c4.5-3.2,9.2-5.5,9.3-5.6c0.9-0.4,1.3-1.4,1-2.4
			c-0.3-0.8-1-1.4-1.9-1.4c-0.1,0-0.2,0-0.3,0c-3.2,0.4-7.3,2.3-11,4.3c1.1-1.2,2.1-2.3,2.7-2.9c0.7-0.7,0.8-1.8,0.2-2.6
			c-0.4-0.5-1-0.8-1.6-0.8c-0.3,0-0.6,0.1-0.9,0.2c-2.3,1.1-4.6,3.1-6.6,5.1c0.2-0.3,0.4-0.6,0.5-1c1.8-3.1,9-13.2,24.3-13.2
			c5.9,0,16.7,1.5,21.6,11.5c0.4,0.8,1.1,1.1,1.4,1.2c0.2,0.1,0.5,0.2,0.7,0.2c0.1,0,0.1,0,0.2,0c1.2,0,2.2-0.5,2.8-1.4
			c1.3-1.7,0.8-4.2,0.4-5.6c-0.9-3.3-3-5.8-6-7.3c-1.3-0.6-2.6-1.2-3.9-1.7c-1.1-0.4-2.2-0.8-3.2-1.3c-0.5-0.2-1-0.5-1.6-0.7
			c-1.9-0.9-3.7-1.7-5.1-2.8c-1.9-1.7-3-4.3-3-7.2c0-3.4,1.5-6.7,4-8.8C39.2,5.1,39.5,4.9,39.8,4.7 M43.6,0.7
			c-2.2,0.6-4.2,1.6-5.9,3.1c-5.7,4.8-6.4,14.4-1,19c2,1.7,4.7,2.7,7.1,3.8c2.3,1.1,4.8,1.8,7.1,2.9c2.5,1.2,4.2,3.3,5,6
			c0.5,1.8,0.7,4.4-1.3,4.4c0,0-0.1,0-0.1,0c-0.1-0.1-0.4-0.1-0.5-0.3c-5.8-11.6-18.2-12.6-23.4-12.6c-17.2,0-24.8,12.1-26,14.1
			C2,45.4,1.1,49,1,52.1c2-2.8,7-9.8,12-12.2c0,0-6.9,6.9-8.6,11.4c3.3-2.6,12.8-8.6,18.6-9.4c0,0-11.8,5.9-16.4,11.7
			c2.4-2.1,5.6-2.2,12.4-2.7c0,0,4.8,1.5,15.7,3l6.7,0c2.8-0.1,5.7-0.1,8.5-0.6c5.7-1.2,9.8-4.5,11.9-10.1
			c2.5-6.7-1.5-15.7-8.4-18.8c-2.8-1.2-3.4-1.2-6.2-2.4c-0.9-0.4-2.6-1-5.2-2c-2.4-0.6-4.2-2.9-4.2-5.5c0-3.1,2.4-5.6,5.4-5.7
			c-0.9-1-1.4-2.4-1.4-3.8C41.8,3.3,42.5,1.8,43.6,0.7L43.6,0.7z"/>
	</g>
	<g id="eye">
		<path id="XMLID_33_" style="fill:#D57BEF;" d="M47.6,0.5c-2.4,0-4.4,2-4.4,4.5s2,4.5,4.4,4.5S52,7.4,52,5S50.1,0.5,47.6,0.5
			L47.6,0.5z M47.6,6.1c-0.6,0-1.1-0.5-1.1-1.2s0.5-1.2,1.1-1.2s1.1,0.5,1.1,1.2S48.3,6.1,47.6,6.1L47.6,6.1z"/>
	</g>
</g>
</svg>
