<svg version="1.1" id="plan-icon-small" xmlns="http://www.w3.org/2000/svg" xmlns:xlink="http://www.w3.org/1999/xlink" x="0px"
	 y="0px" viewBox="0 0 64 64">
<g id="circle">
	<path id="XMLID_12_" style="fill:#f0aa23;" d="M32,2c16.5,0,30,13.5,30,30S48.5,62,32,62S2,48.5,2,32S15.5,2,32,2 M32,0
		C14.3,0,0,14.3,0,32s14.3,32,32,32s32-14.3,32-32S49.7,0,32,0L32,0z"/>
</g>
<g id="inner">
	<path id="XMLID_29_" style="fill:#f0aa23;" d="M26.3,26.3L11.5,52.5l26.2-14.8l14.8-26.2L26.3,26.3z M32,36c-2.2,0-4-1.8-4-4
		c0-2.2,1.8-4,4-4s4,1.8,4,4C36,34.2,34.2,36,32,36z"/>
</g>
</svg>
