<svg version="1.1" id="tenerife-icon" xmlns="http://www.w3.org/2000/svg" xmlns:xlink="http://www.w3.org/1999/xlink" x="0px"
	 y="0px" viewBox="0 0 64 64">
<path id="island" style="fill:none;stroke:#FFFFFF;stroke-width:4;stroke-linecap:round;stroke-linejoin:round;stroke-miterlimit:10;" d="
	M43.1,7.5c4.9-2.4,6.2-2.1,11.6-3.2c4-0.8,9.8,1.2,6.2,6.2c-1.9,2.7-8.9,2.9-11.4,5.2c-3.8,3.5-3.1,4-4.5,8.9
	c-1.3,4.4-2.3,4.5-3.8,8.7c-1.3,3.6-1.9,8.9-4.6,12c-1.7,1.9-4.6,6.5-6.8,7.7c-1.5,0.8-4,0.4-5.7,0.8c-2.4,0.5-8.9,6.1-10.8-0.8
	c-0.1-0.3-2.7-10.2-5.1-15.1C6.4,34,5.5,33.5,3,30.1c-2.2-3.1-1.4-7.5,3-8.2c3.8-0.6,6.8,0.9,10.8-0.2c3.7-1,7.5-1,11.2-1.9
	C36.1,17.9,36.4,10.7,43.1,7.5C45.5,6.3,39.6,9.1,43.1,7.5z"/>
</svg>
